<?xml version="1.0" encoding="UTF-8" standalone="no"?>
<svg
   version="1.1"
   x="0px"
   y="0px"
   viewBox="0 0 82.699997 76.300003"
   enable-background="new 0 0 100 100"
   xml:space="preserve"
   id="svg4"
   sodipodi:docname="calendar-placeholder.svg"
   width="82.699997"
   height="76.300003"
   inkscape:version="1.1 (c4e8f9ed74, 2021-05-24)"
   xmlns:inkscape="http://www.inkscape.org/namespaces/inkscape"
   xmlns:sodipodi="http://sodipodi.sourceforge.net/DTD/sodipodi-0.dtd"
   xmlns="http://www.w3.org/2000/svg"
   xmlns:svg="http://www.w3.org/2000/svg"><defs
     id="defs8" /><sodipodi:namedview
     id="namedview6"
     pagecolor="#ffffff"
     bordercolor="#666666"
     borderopacity="1.0"
     inkscape:pageshadow="2"
     inkscape:pageopacity="0.0"
     inkscape:pagecheckerboard="0"
     showgrid="false"
     inkscape:zoom="3.7109736"
     inkscape:cx="36.513329"
     inkscape:cy="54.163684"
     inkscape:window-width="1920"
     inkscape:window-height="1012"
     inkscape:window-x="0"
     inkscape:window-y="32"
     inkscape:window-maximized="1"
     inkscape:current-layer="svg4" /><path
     d="M 76.5,8 H 68.4 V 3.5 C 68.4,1.6 66.8,0 64.9,0 h -5 C 58,0 56.4,1.6 56.4,3.5 V 8 H 26.7 V 3.5 C 26.7,1.6 25.1,0 23.2,0 h -5 C 16.3,0 14.7,1.6 14.7,3.5 V 8 H 6.2 C 2.8,8 0,10.8 0,14.2 v 55.9 c 0,3.4 2.8,6.2 6.2,6.2 h 70.3 c 3.4,0 6.2,-2.8 6.2,-6.2 V 14.2 C 82.7,10.8 79.9,8 76.5,8 Z M 60.1,3.8 h 4.6 v 6.1 4.9 H 60.1 V 9.9 Z m -41.7,0 H 23 v 6.1 4.9 H 18.4 V 9.9 Z M 6.3,11.7 h 8.5 V 15 c 0,1.9 1.6,3.5 3.5,3.5 h 5 c 1.9,0 3.5,-1.6 3.5,-3.5 V 11.7 H 56.4 V 15 c 0,1.9 1.6,3.5 3.5,3.5 h 5 c 1.9,0 3.5,-1.6 3.5,-3.5 v -3.3 h 8.2 c 1.4,0 2.5,1.1 2.5,2.5 v 10 H 3.8 v -10 c 0,-1.4 1.1,-2.5 2.5,-2.5 z M 76.5,72.6 H 6.3 C 4.9,72.6 3.8,71.5 3.8,70.1 V 27.9 H 79 v 42.2 c 0,1.4 -1.1,2.5 -2.5,2.5 z M 20.1,38 c 0,1 -0.8,1.8 -1.8,1.8 h -6 c -1,0 -1.8,-0.8 -1.8,-1.8 0,-1 0.8,-1.8 1.8,-1.8 h 6 c 1,-0.1 1.8,0.8 1.8,1.8 z m 17.3,0 c 0,1 -0.8,1.8 -1.8,1.8 h -6 c -1,0 -1.8,-0.8 -1.8,-1.8 0,-1 0.8,-1.8 1.8,-1.8 h 6 c 0.9,-0.1 1.8,0.8 1.8,1.8 z m 17.2,0 c 0,1 -0.8,1.8 -1.8,1.8 h -6 C 45.8,39.8 45,39 45,38 c 0,-1 0.8,-1.8 1.8,-1.8 h 6 c 1,-0.1 1.8,0.8 1.8,1.8 z m 17.3,0 c 0,1 -0.8,1.8 -1.8,1.8 h -6 c -1,0 -1.8,-0.8 -1.8,-1.8 0,-1 0.8,-1.8 1.8,-1.8 h 6 c 1,-0.1 1.8,0.8 1.8,1.8 z M 20.1,50.3 c 0,1 -0.8,1.8 -1.8,1.8 h -6 c -1,0 -1.8,-0.8 -1.8,-1.8 0,-1 0.8,-1.8 1.8,-1.8 h 6 c 1,0 1.8,0.8 1.8,1.8 z m 17.3,0 c 0,1 -0.8,1.8 -1.8,1.8 h -6 c -1,0 -1.8,-0.8 -1.8,-1.8 0,-1 0.8,-1.8 1.8,-1.8 h 6 c 0.9,0 1.8,0.8 1.8,1.8 z m 17.2,0 c 0,1 -0.8,1.8 -1.8,1.8 h -6 c -1,0 -1.8,-0.8 -1.8,-1.8 0,-1 0.8,-1.8 1.8,-1.8 h 6 c 1,0 1.8,0.8 1.8,1.8 z m 17.3,0 c 0,1 -0.8,1.8 -1.8,1.8 h -6 c -1,0 -1.8,-0.8 -1.8,-1.8 0,-1 0.8,-1.8 1.8,-1.8 h 6 c 1,0 1.8,0.8 1.8,1.8 z M 20.1,62.7 c 0,1 -0.8,1.8 -1.8,1.8 h -6 c -1,0 -1.8,-0.8 -1.8,-1.8 0,-1 0.8,-1.8 1.8,-1.8 h 6 c 1,-0.1 1.8,0.7 1.8,1.8 z m 17.3,0 c 0,1 -0.8,1.8 -1.8,1.8 h -6 c -1,0 -1.8,-0.8 -1.8,-1.8 0,-1 0.8,-1.8 1.8,-1.8 h 6 c 0.9,-0.1 1.8,0.7 1.8,1.8 z m 17.2,0 c 0,1 -0.8,1.8 -1.8,1.8 h -6 c -1,0 -1.8,-0.8 -1.8,-1.8 0,-1 0.8,-1.8 1.8,-1.8 h 6 c 1,-0.1 1.8,0.7 1.8,1.8 z m 17.3,0 c 0,1 -0.8,1.8 -1.8,1.8 h -6 c -1,0 -1.8,-0.8 -1.8,-1.8 0,-1 0.8,-1.8 1.8,-1.8 h 6 c 1,-0.1 1.8,0.7 1.8,1.8 z"
     id="path2" /></svg>
