<?xml version="1.0" encoding="UTF-8" standalone="no"?>
<!-- Generator: Adobe Illustrator 18.0.0, SVG Export Plug-In . SVG Version: 6.00 Build 0)  -->

<svg
   version="1.1"
   id="Capa_1"
   x="0px"
   y="0px"
   viewBox="0 0 30 29.884125"
   xml:space="preserve"
   sodipodi:docname="list-placeholder.svg"
   width="30"
   height="29.884125"
   inkscape:version="1.1 (c4e8f9ed74, 2021-05-24)"
   xmlns:inkscape="http://www.inkscape.org/namespaces/inkscape"
   xmlns:sodipodi="http://sodipodi.sourceforge.net/DTD/sodipodi-0.dtd"
   xmlns="http://www.w3.org/2000/svg"
   xmlns:svg="http://www.w3.org/2000/svg"><defs
   id="defs85" /><sodipodi:namedview
   id="namedview83"
   pagecolor="#ffffff"
   bordercolor="#666666"
   borderopacity="1.0"
   inkscape:pageshadow="2"
   inkscape:pageopacity="0.0"
   inkscape:pagecheckerboard="0"
   showgrid="false"
   inkscape:zoom="11.463504"
   inkscape:cx="9.4648198"
   inkscape:cy="28.699776"
   inkscape:window-width="1920"
   inkscape:window-height="1012"
   inkscape:window-x="0"
   inkscape:window-y="32"
   inkscape:window-maximized="1"
   inkscape:current-layer="Capa_1" />

<g
   id="g52"
   transform="translate(-15.035712,-9.6641609)">
</g>
<g
   id="g54"
   transform="translate(-15.035712,-9.6641609)">
</g>
<g
   id="g56"
   transform="translate(-15.035712,-9.6641609)">
</g>
<g
   id="g58"
   transform="translate(-15.035712,-9.6641609)">
</g>
<g
   id="g60"
   transform="translate(-15.035712,-9.6641609)">
</g>
<g
   id="g62"
   transform="translate(-15.035712,-9.6641609)">
</g>
<g
   id="g64"
   transform="translate(-15.035712,-9.6641609)">
</g>
<g
   id="g66"
   transform="translate(-15.035712,-9.6641609)">
</g>
<g
   id="g68"
   transform="translate(-15.035712,-9.6641609)">
</g>
<g
   id="g70"
   transform="translate(-15.035712,-9.6641609)">
</g>
<g
   id="g72"
   transform="translate(-15.035712,-9.6641609)">
</g>
<g
   id="g74"
   transform="translate(-15.035712,-9.6641609)">
</g>
<g
   id="g76"
   transform="translate(-15.035712,-9.6641609)">
</g>
<g
   id="g78"
   transform="translate(-15.035712,-9.6641609)">
</g>
<g
   id="g80"
   transform="translate(-15.035712,-9.6641609)">
</g>
<g
   id="g50"
   transform="matrix(0.5,0,0,0.5,0,-0.057875)"
   style="stroke:none"><path
     d="m 44,38.884 c 0,2.206 1.794,4 4,4 2.206,0 4,-1.794 4,-4 0,-2.206 -1.794,-4 -4,-4 -2.206,0 -4,1.794 -4,4 z m 4,-2 c 1.103,0 2,0.897 2,2 0,1.103 -0.897,2 -2,2 -1.103,0 -2,-0.897 -2,-2 0,-1.103 0.897,-2 2,-2 z"
     id="path44"
     style="stroke:none" /><path
     d="M 42.942,5.884 37.506,0.448 c -0.443,-0.443 -1.166,-0.443 -1.609,0 L 33.851,2.494 31.805,0.448 c -0.443,-0.443 -1.166,-0.443 -1.609,0 L 24.76,5.884 H 8 c -4.411,0 -8,3.589 -8,8 v 38.848 c 0,3.943 3.209,7.152 7.152,7.152 H 60 v -14 -14 -10 -2 -14 z m -6.24,-3.412 3.412,3.412 14,14 H 48.723 L 37.456,8.616 C 37.033,8.205 36.37,8.206 35.937,8.627 L 24.681,19.884 H 19.29 L 35.266,3.909 v 0 z m 9.194,17.412 H 27.509 l 9.193,-9.193 z M 31,2.472 32.437,3.909 16.462,19.884 h -2.874 l 14,-14 z M 8,7.884 h 14.76 c -4.060047,3.936814 -7.944661,7.944661 -12,12 H 8 c -3.309,0 -6,-2.691 -6,-6 0,-3.309 2.691,-6 6,-6 z m 50,36 H 47 c -2.757,0 -5,-2.243 -5,-5 0,-2.757 2.243,-5 5,-5 h 11 z m 0,-12 H 47 c -3.859,0 -7,3.141 -7,7 0,3.859 3.141,7 7,7 h 11 v 12 H 7.152 C 4.312,57.884 2,55.573 2,52.732 2.1933065,41.032465 2.0001641,29.373719 2.198,19.377 c 0.09,0.095 0.181,0.188 0.275,0.278 0.086,0.083 0.175,0.162 0.265,0.241 0.112,0.098 0.226,0.193 0.343,0.285 0.094,0.074 0.19,0.145 0.287,0.215 0.121,0.087 0.246,0.169 0.372,0.249 0.101,0.064 0.202,0.126 0.306,0.186 0.132,0.075 0.267,0.145 0.403,0.213 0.105,0.053 0.21,0.106 0.318,0.154 0.143,0.063 0.289,0.119 0.435,0.174 0.108,0.041 0.215,0.083 0.325,0.119 0.157,0.051 0.317,0.092 0.477,0.134 0.106,0.027 0.21,0.059 0.318,0.082 0.181,0.039 0.365,0.065 0.55,0.091 0.092,0.013 0.182,0.032 0.275,0.042 0.28,0.03 0.564,0.047 0.851,0.047 h 3.816 2.828 2.874 2.828 4.956 22.805 4.953 2.828 H 58 Z m -1.058,-12 -12,-12 H 58 v 12 z"
     id="path46"
     style="stroke:none;stroke-opacity:1"
     sodipodi:nodetypes="csscsscssssccccccccccccccccccccccccccccsccssscssscccsssccsccccccccccccccccsccccccccccccccc" /></g></svg>
