<?xml version="1.0" encoding="UTF-8" standalone="no"?>
<!-- Generator: Adobe Illustrator 18.0.0, SVG Export Plug-In . SVG Version: 6.00 Build 0)  -->

<svg
   version="1.1"
   id="Capa_1"
   x="0px"
   y="0px"
   viewBox="0 0 63.533325 42.490471"
   xml:space="preserve"
   sodipodi:docname="list-placeholder.svg"
   width="63.533325"
   height="42.490471"
   inkscape:version="1.1 (c4e8f9ed74, 2021-05-24)"
   xmlns:inkscape="http://www.inkscape.org/namespaces/inkscape"
   xmlns:sodipodi="http://sodipodi.sourceforge.net/DTD/sodipodi-0.dtd"
   xmlns="http://www.w3.org/2000/svg"
   xmlns:svg="http://www.w3.org/2000/svg"><defs
   id="defs85" /><sodipodi:namedview
   id="namedview83"
   pagecolor="#ffffff"
   bordercolor="#666666"
   borderopacity="1.0"
   inkscape:pageshadow="2"
   inkscape:pageopacity="0.0"
   inkscape:pagecheckerboard="0"
   showgrid="false"
   inkscape:zoom="11.463504"
   inkscape:cx="26.213625"
   inkscape:cy="28.699776"
   inkscape:window-width="1920"
   inkscape:window-height="1012"
   inkscape:window-x="0"
   inkscape:window-y="32"
   inkscape:window-maximized="1"
   inkscape:current-layer="Capa_1" />

<g
   id="g52"
   transform="translate(1.7309515,-9.6641609)">
</g>
<g
   id="g54"
   transform="translate(1.7309515,-9.6641609)">
</g>
<g
   id="g56"
   transform="translate(1.7309515,-9.6641609)">
</g>
<g
   id="g58"
   transform="translate(1.7309515,-9.6641609)">
</g>
<g
   id="g60"
   transform="translate(1.7309515,-9.6641609)">
</g>
<g
   id="g62"
   transform="translate(1.7309515,-9.6641609)">
</g>
<g
   id="g64"
   transform="translate(1.7309515,-9.6641609)">
</g>
<g
   id="g66"
   transform="translate(1.7309515,-9.6641609)">
</g>
<g
   id="g68"
   transform="translate(1.7309515,-9.6641609)">
</g>
<g
   id="g70"
   transform="translate(1.7309515,-9.6641609)">
</g>
<g
   id="g72"
   transform="translate(1.7309515,-9.6641609)">
</g>
<g
   id="g74"
   transform="translate(1.7309515,-9.6641609)">
</g>
<g
   id="g76"
   transform="translate(1.7309515,-9.6641609)">
</g>
<g
   id="g78"
   transform="translate(1.7309515,-9.6641609)">
</g>
<g
   id="g80"
   transform="translate(1.7309515,-9.6641609)">
</g>
<g
   aria-label="Looks like you don't have any expenses. 
Lucky you! "
   id="text10694"
   style="font-size:3.24664px;line-height:1.25;stroke-width:0.811659"><path
     d="M 1.5129335,37.756165 H -6.9283822e-7 V 35.483517 H 0.24025066 V 37.54838 H 1.5129335 Z"
     style="font-family:Montserrat;-inkscape-font-specification:Montserrat;text-align:center;text-anchor:middle"
     id="path98476" /><path
     d="m 2.5356169,37.772398 q -0.2467446,0 -0.4447897,-0.110386 Q 1.8927822,37.54838 1.7791498,37.350335 1.6655174,37.15229 1.6655174,36.902298 q 0,-0.249991 0.1136324,-0.448036 0.1136324,-0.198045 0.3116774,-0.308431 0.1980451,-0.110386 0.4447897,-0.110386 0.2467446,0 0.4447897,0.110386 0.198045,0.110386 0.3084308,0.308431 0.1136324,0.198045 0.1136324,0.448036 0,0.249992 -0.1136324,0.448037 -0.1103858,0.198045 -0.3084308,0.311677 -0.1980451,0.110386 -0.4447897,0.110386 z m 0,-0.204539 q 0.1818118,0 0.324664,-0.08117 0.1460988,-0.08441 0.2272648,-0.237004 0.081166,-0.152592 0.081166,-0.347391 0,-0.194798 -0.081166,-0.34739 -0.081166,-0.152592 -0.2272648,-0.233758 -0.1428522,-0.08441 -0.324664,-0.08441 -0.1818118,0 -0.3279106,0.08441 -0.1428522,0.08117 -0.2272648,0.233758 -0.081166,0.152592 -0.081166,0.34739 0,0.194799 0.081166,0.347391 0.084413,0.152592 0.2272648,0.237004 0.1460988,0.08117 0.3279106,0.08117 z"
     style="font-family:Montserrat;-inkscape-font-specification:Montserrat;text-align:center;text-anchor:middle"
     id="path98478" /><path
     d="m 4.5712567,37.772398 q -0.2467447,0 -0.4447897,-0.110386 Q 3.9284219,37.54838 3.8147895,37.350335 3.7011571,37.15229 3.7011571,36.902298 q 0,-0.249991 0.1136324,-0.448036 0.1136324,-0.198045 0.3116775,-0.308431 0.198045,-0.110386 0.4447897,-0.110386 0.2467446,0 0.4447896,0.110386 0.1980451,0.110386 0.3084308,0.308431 0.1136324,0.198045 0.1136324,0.448036 0,0.249992 -0.1136324,0.448037 -0.1103857,0.198045 -0.3084308,0.311677 -0.198045,0.110386 -0.4447896,0.110386 z m 0,-0.204539 q 0.1818118,0 0.324664,-0.08117 0.1460988,-0.08441 0.2272648,-0.237004 0.081166,-0.152592 0.081166,-0.347391 0,-0.194798 -0.081166,-0.34739 -0.081166,-0.152592 -0.2272648,-0.233758 -0.1428522,-0.08441 -0.324664,-0.08441 -0.1818119,0 -0.3279107,0.08441 -0.1428521,0.08117 -0.2272648,0.233758 -0.081166,0.152592 -0.081166,0.34739 0,0.194799 0.081166,0.347391 0.084413,0.152592 0.2272648,0.237004 0.1460988,0.08117 0.3279107,0.08117 z"
     style="font-family:Montserrat;-inkscape-font-specification:Montserrat;text-align:center;text-anchor:middle"
     id="path98480" /><path
     d="M 7.512709,37.756165 H 7.2302513 L 6.5419636,36.899052 6.1393803,37.269169 v 0.486996 H 5.9088688 v -2.409007 h 0.2305115 v 1.63306 l 1.0194449,-0.931786 h 0.2857043 l -0.730494,0.698028 z"
     style="font-family:Montserrat;-inkscape-font-specification:Montserrat;text-align:center;text-anchor:middle"
     id="path98482" /><path
     d="m 8.2659266,37.772398 q -0.207785,0 -0.3993367,-0.05844 -0.1883052,-0.06169 -0.2954443,-0.152592 l 0.1038925,-0.181812 q 0.1071391,0.08441 0.2694711,0.139606 0.162332,0.05195 0.3376506,0.05195 0.233758,0 0.3441438,-0.07143 0.1136324,-0.07467 0.1136324,-0.207785 0,-0.09415 -0.061686,-0.146099 -0.061686,-0.05519 -0.1558387,-0.08117 -0.094152,-0.02922 -0.2499913,-0.05519 -0.2077849,-0.03896 -0.3344039,-0.07792 -0.1266189,-0.04221 -0.2175248,-0.139606 -0.087659,-0.0974 -0.087659,-0.269471 0,-0.214278 0.1785652,-0.350637 0.1785652,-0.136359 0.4967359,-0.136359 0.1655786,0 0.3311573,0.04545 0.1655786,0.04221 0.2727177,0.113633 L 8.8113621,36.379589 Q 8.6003305,36.23349 8.3081329,36.23349 q -0.2207715,0 -0.3344039,0.07792 -0.1103858,0.07792 -0.1103858,0.204538 0,0.0974 0.061686,0.155839 0.064933,0.05844 0.1590853,0.08766 0.094153,0.02597 0.2597312,0.05519 0.2045383,0.03896 0.3279107,0.07792 0.1233723,0.03896 0.2110316,0.133113 0.087659,0.09415 0.087659,0.259731 0,0.224018 -0.1883051,0.35713 -0.1850585,0.129866 -0.5162157,0.129866 z"
     style="font-family:Montserrat;-inkscape-font-specification:Montserrat;text-align:center;text-anchor:middle"
     id="path98484" /><path
     d="M 10.47688,37.756165 H 10.246368 V 35.347158 H 10.47688 Z"
     style="font-family:Montserrat;-inkscape-font-specification:Montserrat;text-align:center;text-anchor:middle"
     id="path98486" /><path
     d="m 11.350223,37.756165 h -0.230511 v -1.707733 h 0.230511 z m -0.113632,-2.081097 q -0.07143,0 -0.120126,-0.0487 -0.0487,-0.0487 -0.0487,-0.116879 0,-0.06493 0.0487,-0.113633 0.0487,-0.0487 0.120126,-0.0487 0.07143,0 0.120126,0.0487 0.0487,0.04545 0.0487,0.110386 0,0.07143 -0.0487,0.120126 -0.0487,0.0487 -0.120126,0.0487 z"
     style="font-family:Montserrat;-inkscape-font-specification:Montserrat;text-align:center;text-anchor:middle"
     id="path98488" /><path
     d="m 13.596896,37.756165 h -0.282458 l -0.688288,-0.857113 -0.402583,0.370117 v 0.486996 h -0.230512 v -2.409007 h 0.230512 v 1.63306 l 1.019445,-0.931786 h 0.285704 l -0.730494,0.698028 z"
     style="font-family:Montserrat;-inkscape-font-specification:Montserrat;text-align:center;text-anchor:middle"
     id="path98490" /><path
     d="m 15.363061,36.973724 h -1.428522 q 0.01948,0.266225 0.204538,0.431803 0.185059,0.162332 0.467517,0.162332 0.159085,0 0.292197,-0.05519 0.133112,-0.05844 0.230512,-0.168826 l 0.129865,0.149346 q -0.113632,0.136359 -0.285704,0.207785 -0.168825,0.07143 -0.373364,0.07143 -0.262977,0 -0.467516,-0.110386 -0.201291,-0.113632 -0.314924,-0.311677 -0.113632,-0.198045 -0.113632,-0.448037 0,-0.249991 0.107139,-0.448036 0.110386,-0.198045 0.298691,-0.308431 0.191551,-0.110386 0.428556,-0.110386 0.237005,0 0.42531,0.110386 0.188305,0.110386 0.295444,0.308431 0.107139,0.194798 0.107139,0.448036 z M 14.538414,36.23349 q -0.246744,0 -0.41557,0.159086 -0.165578,0.155838 -0.188305,0.409076 h 1.210997 q -0.02273,-0.253238 -0.191552,-0.409076 -0.165579,-0.159086 -0.41557,-0.159086 z"
     style="font-family:Montserrat;-inkscape-font-specification:Montserrat;text-align:center;text-anchor:middle"
     id="path98492" /><path
     d="m 17.895431,36.048432 h 0.227265 l -0.853866,1.912271 q -0.103893,0.240251 -0.240252,0.340897 -0.136358,0.100646 -0.32791,0.100646 -0.123373,0 -0.230512,-0.03896 -0.107139,-0.03896 -0.185058,-0.116879 l 0.107139,-0.172072 q 0.129866,0.129866 0.311677,0.129866 0.116879,0 0.198045,-0.06493 0.08441,-0.06493 0.155839,-0.220771 l 0.07467,-0.165579 -0.76296,-1.704486 h 0.240251 l 0.642835,1.451248 z"
     style="font-family:Montserrat;-inkscape-font-specification:Montserrat;text-align:center;text-anchor:middle"
     id="path98494" /><path
     d="m 19.096684,37.772398 q -0.246744,0 -0.444789,-0.110386 -0.198045,-0.113632 -0.311678,-0.311677 -0.113632,-0.198045 -0.113632,-0.448037 0,-0.249991 0.113632,-0.448036 0.113633,-0.198045 0.311678,-0.308431 0.198045,-0.110386 0.444789,-0.110386 0.246745,0 0.44479,0.110386 0.198045,0.110386 0.308431,0.308431 0.113632,0.198045 0.113632,0.448036 0,0.249992 -0.113632,0.448037 -0.110386,0.198045 -0.308431,0.311677 -0.198045,0.110386 -0.44479,0.110386 z m 0,-0.204539 q 0.181812,0 0.324664,-0.08117 0.146099,-0.08441 0.227265,-0.237004 0.08117,-0.152592 0.08117,-0.347391 0,-0.194798 -0.08117,-0.34739 -0.08117,-0.152592 -0.227265,-0.233758 -0.142852,-0.08441 -0.324664,-0.08441 -0.181811,0 -0.32791,0.08441 -0.142852,0.08117 -0.227265,0.233758 -0.08117,0.152592 -0.08117,0.34739 0,0.194799 0.08117,0.347391 0.08441,0.152592 0.227265,0.237004 0.146099,0.08117 0.32791,0.08117 z"
     style="font-family:Montserrat;-inkscape-font-specification:Montserrat;text-align:center;text-anchor:middle"
     id="path98496" /><path
     d="m 21.742692,36.048432 h 0.230511 v 1.707733 h -0.220771 v -0.311678 q -0.09091,0.155839 -0.249992,0.243498 -0.159085,0.08441 -0.363623,0.08441 -0.334404,0 -0.529203,-0.185059 -0.191552,-0.188305 -0.191552,-0.548682 v -0.990225 h 0.230512 v 0.967499 q 0,0.269471 0.133112,0.409076 0.133112,0.139606 0.379857,0.139606 0.269471,0 0.42531,-0.162332 0.155839,-0.165579 0.155839,-0.457776 z"
     style="font-family:Montserrat;-inkscape-font-specification:Montserrat;text-align:center;text-anchor:middle"
     id="path98498" /><path
     d="m 24.797772,35.347158 h 0.230512 v 2.409007 h -0.220772 v -0.337651 q -0.103892,0.172072 -0.275964,0.262978 -0.168826,0.09091 -0.383104,0.09091 -0.240251,0 -0.43505,-0.110386 -0.194798,-0.110386 -0.305184,-0.308431 -0.110386,-0.198045 -0.110386,-0.451283 0,-0.253238 0.110386,-0.451283 0.110386,-0.198045 0.305184,-0.305184 0.194799,-0.110386 0.43505,-0.110386 0.207785,0 0.373364,0.08766 0.168825,0.08441 0.275964,0.249991 z m -0.629848,2.220701 q 0.178565,0 0.321417,-0.08117 0.146099,-0.08441 0.227265,-0.237004 0.08441,-0.152592 0.08441,-0.347391 0,-0.194798 -0.08441,-0.34739 -0.08117,-0.152592 -0.227265,-0.233758 -0.142852,-0.08441 -0.321417,-0.08441 -0.181812,0 -0.327911,0.08441 -0.142852,0.08117 -0.227264,0.233758 -0.08117,0.152592 -0.08117,0.34739 0,0.194799 0.08117,0.347391 0.08441,0.152592 0.227264,0.237004 0.146099,0.08117 0.327911,0.08117 z"
     style="font-family:Montserrat;-inkscape-font-specification:Montserrat;text-align:center;text-anchor:middle"
     id="path98500" /><path
     d="m 26.369144,37.772398 q -0.246745,0 -0.44479,-0.110386 -0.198045,-0.113632 -0.311678,-0.311677 -0.113632,-0.198045 -0.113632,-0.448037 0,-0.249991 0.113632,-0.448036 0.113633,-0.198045 0.311678,-0.308431 0.198045,-0.110386 0.44479,-0.110386 0.246744,0 0.444789,0.110386 0.198045,0.110386 0.308431,0.308431 0.113632,0.198045 0.113632,0.448036 0,0.249992 -0.113632,0.448037 -0.110386,0.198045 -0.308431,0.311677 -0.198045,0.110386 -0.444789,0.110386 z m 0,-0.204539 q 0.181811,0 0.324664,-0.08117 0.146098,-0.08441 0.227264,-0.237004 0.08117,-0.152592 0.08117,-0.347391 0,-0.194798 -0.08117,-0.34739 -0.08117,-0.152592 -0.227264,-0.233758 -0.142853,-0.08441 -0.324664,-0.08441 -0.181812,0 -0.327911,0.08441 -0.142852,0.08117 -0.227265,0.233758 -0.08117,0.152592 -0.08117,0.34739 0,0.194799 0.08117,0.347391 0.08441,0.152592 0.227265,0.237004 0.146099,0.08117 0.327911,0.08117 z"
     style="font-family:Montserrat;-inkscape-font-specification:Montserrat;text-align:center;text-anchor:middle"
     id="path98502" /><path
     d="m 28.576856,36.035445 q 0.321417,0 0.509723,0.188305 0.191551,0.185059 0.191551,0.542189 v 0.990226 h -0.230511 v -0.967499 q 0,-0.266225 -0.133112,-0.40583 -0.133113,-0.139606 -0.379857,-0.139606 -0.275965,0 -0.438297,0.165579 -0.159085,0.162332 -0.159085,0.451283 v 0.896073 h -0.230511 v -1.707733 h 0.220771 v 0.314924 q 0.09415,-0.155839 0.259731,-0.240251 0.168826,-0.08766 0.389597,-0.08766 z"
     style="font-family:Montserrat;-inkscape-font-specification:Montserrat;text-align:center;text-anchor:middle"
     id="path98504" /><path
     d="M 29.995632,36.34063 H 29.82356 l -0.01623,-0.857113 h 0.204538 z"
     style="font-family:Montserrat;-inkscape-font-specification:Montserrat;text-align:center;text-anchor:middle"
     id="path98506" /><path
     d="m 31.459864,37.652272 q -0.06493,0.05844 -0.162332,0.09091 -0.09415,0.02922 -0.198045,0.02922 -0.240251,0 -0.370117,-0.129866 -0.129865,-0.129865 -0.129865,-0.36687 V 36.24323 h -0.305184 v -0.194798 h 0.305184 v -0.373364 h 0.230511 v 0.373364 h 0.519463 v 0.194798 h -0.519463 v 1.019445 q 0,0.152592 0.07467,0.233758 0.07792,0.07792 0.220771,0.07792 0.07143,0 0.136359,-0.02273 0.06818,-0.02273 0.116879,-0.06493 z"
     style="font-family:Montserrat;-inkscape-font-specification:Montserrat;text-align:center;text-anchor:middle"
     id="path98508" /><path
     d="m 33.599391,36.035445 q 0.321418,0 0.509723,0.188305 0.191552,0.185059 0.191552,0.542189 v 0.990226 h -0.230512 v -0.967499 q 0,-0.266225 -0.133112,-0.40583 -0.133112,-0.139606 -0.379857,-0.139606 -0.275964,0 -0.438296,0.165579 -0.159086,0.162332 -0.159086,0.451283 v 0.896073 h -0.230511 v -2.409007 h 0.230511 v 0.999965 q 0.09415,-0.149346 0.259732,-0.230512 0.165578,-0.08117 0.379856,-0.08117 z"
     style="font-family:Montserrat;-inkscape-font-specification:Montserrat;text-align:center;text-anchor:middle"
     id="path98510" /><path
     d="m 35.524645,36.035445 q 0.334404,0 0.512969,0.168826 0.178565,0.165578 0.178565,0.493489 v 1.058405 H 35.995408 V 37.48994 q -0.07792,0.133112 -0.230512,0.207785 -0.149345,0.07467 -0.35713,0.07467 -0.285704,0 -0.45453,-0.136359 -0.168825,-0.136359 -0.168825,-0.360377 0,-0.217525 0.155839,-0.350637 0.159085,-0.133113 0.503229,-0.133113 h 0.542189 V 36.68802 q 0,-0.220772 -0.123372,-0.334404 -0.123373,-0.116879 -0.360377,-0.116879 -0.162332,0 -0.311678,0.05519 -0.149345,0.05195 -0.256484,0.146099 l -0.103893,-0.172072 q 0.129866,-0.110386 0.311678,-0.168825 0.181811,-0.06169 0.383103,-0.06169 z m -0.08117,1.555141 q 0.194798,0 0.334404,-0.08766 0.139605,-0.09091 0.207785,-0.259732 v -0.279211 h -0.535696 q -0.438296,0 -0.438296,0.305185 0,0.149345 0.113632,0.237004 0.113633,0.08441 0.318171,0.08441 z"
     style="font-family:Montserrat;-inkscape-font-specification:Montserrat;text-align:center;text-anchor:middle"
     id="path98512" /><path
     d="m 37.371973,37.502927 0.646082,-1.454495 h 0.227265 l -0.759714,1.707733 h -0.237005 l -0.756467,-1.707733 h 0.240251 z"
     style="font-family:Montserrat;-inkscape-font-specification:Montserrat;text-align:center;text-anchor:middle"
     id="path98514" /><path
     d="M 40.008241,36.973724 H 38.57972 q 0.01948,0.266225 0.204538,0.431803 0.185059,0.162332 0.467516,0.162332 0.159086,0 0.292198,-0.05519 0.133112,-0.05844 0.230511,-0.168826 l 0.129866,0.149346 q -0.113632,0.136359 -0.285704,0.207785 -0.168826,0.07143 -0.373364,0.07143 -0.262978,0 -0.467516,-0.110386 -0.201292,-0.113632 -0.314924,-0.311677 -0.113633,-0.198045 -0.113633,-0.448037 0,-0.249991 0.10714,-0.448036 0.110385,-0.198045 0.29869,-0.308431 0.191552,-0.110386 0.428557,-0.110386 0.237005,0 0.42531,0.110386 0.188305,0.110386 0.295444,0.308431 0.107139,0.194798 0.107139,0.448036 z M 39.183595,36.23349 q -0.246745,0 -0.41557,0.159086 -0.165579,0.155838 -0.188305,0.409076 h 1.210997 Q 39.76799,36.548414 39.599165,36.392576 39.433586,36.23349 39.183595,36.23349 Z"
     style="font-family:Montserrat;-inkscape-font-specification:Montserrat;text-align:center;text-anchor:middle"
     id="path98516" /><path
     d="m 41.930243,36.035445 q 0.334404,0 0.512969,0.168826 0.178565,0.165578 0.178565,0.493489 v 1.058405 H 42.401006 V 37.48994 q -0.07792,0.133112 -0.230512,0.207785 -0.149345,0.07467 -0.35713,0.07467 -0.285705,0 -0.45453,-0.136359 -0.168825,-0.136359 -0.168825,-0.360377 0,-0.217525 0.155839,-0.350637 0.159085,-0.133113 0.503229,-0.133113 h 0.542189 V 36.68802 q 0,-0.220772 -0.123373,-0.334404 -0.123372,-0.116879 -0.360377,-0.116879 -0.162332,0 -0.311677,0.05519 -0.149346,0.05195 -0.256485,0.146099 l -0.103892,-0.172072 q 0.129865,-0.110386 0.311677,-0.168825 0.181812,-0.06169 0.383104,-0.06169 z m -0.08117,1.555141 q 0.194798,0 0.334404,-0.08766 0.139605,-0.09091 0.207785,-0.259732 V 36.963984 H 41.85557 q -0.438296,0 -0.438296,0.305185 0,0.149345 0.113632,0.237004 0.113632,0.08441 0.318171,0.08441 z"
     style="font-family:Montserrat;-inkscape-font-specification:Montserrat;text-align:center;text-anchor:middle"
     id="path98518" /><path
     d="m 44.118473,36.035445 q 0.321417,0 0.509722,0.188305 0.191552,0.185059 0.191552,0.542189 v 0.990226 h -0.230512 v -0.967499 q 0,-0.266225 -0.133112,-0.40583 -0.133112,-0.139606 -0.379857,-0.139606 -0.275964,0 -0.438296,0.165579 -0.159085,0.162332 -0.159085,0.451283 v 0.896073 h -0.230512 v -1.707733 h 0.220772 v 0.314924 q 0.09415,-0.155839 0.259731,-0.240251 0.168825,-0.08766 0.389597,-0.08766 z"
     style="font-family:Montserrat;-inkscape-font-specification:Montserrat;text-align:center;text-anchor:middle"
     id="path98520" /><path
     d="m 46.621628,36.048432 h 0.227264 l -0.853866,1.912271 q -0.103892,0.240251 -0.240251,0.340897 -0.136359,0.100646 -0.327911,0.100646 -0.123372,0 -0.230511,-0.03896 -0.107139,-0.03896 -0.185059,-0.116879 l 0.107139,-0.172072 q 0.129866,0.129866 0.311678,0.129866 0.116879,0 0.198045,-0.06493 0.08441,-0.06493 0.155838,-0.220771 l 0.07467,-0.165579 -0.76296,-1.704486 h 0.240251 l 0.642835,1.451248 z"
     style="font-family:Montserrat;-inkscape-font-specification:Montserrat;text-align:center;text-anchor:middle"
     id="path98522" /><path
     d="m 49.511133,36.973724 h -1.428522 q 0.01948,0.266225 0.204539,0.431803 0.185058,0.162332 0.467516,0.162332 0.159085,0 0.292197,-0.05519 0.133113,-0.05844 0.230512,-0.168826 l 0.129865,0.149346 q -0.113632,0.136359 -0.285704,0.207785 -0.168825,0.07143 -0.373363,0.07143 -0.262978,0 -0.467517,-0.110386 Q 48.079365,37.54838 47.965732,37.350335 47.8521,37.15229 47.8521,36.902298 q 0,-0.249991 0.107139,-0.448036 0.110386,-0.198045 0.298691,-0.308431 0.191552,-0.110386 0.428556,-0.110386 0.237005,0 0.42531,0.110386 0.188305,0.110386 0.295444,0.308431 0.10714,0.194798 0.10714,0.448036 z M 48.686486,36.23349 q -0.246744,0 -0.415569,0.159086 -0.165579,0.155838 -0.188306,0.409076 h 1.210997 q -0.02273,-0.253238 -0.191552,-0.409076 -0.165578,-0.159086 -0.41557,-0.159086 z"
     style="font-family:Montserrat;-inkscape-font-specification:Montserrat;text-align:center;text-anchor:middle"
     id="path98524" /><path
     d="m 50.605242,36.879572 0.681794,0.876593 h -0.262978 l -0.542189,-0.714261 -0.545435,0.714261 h -0.259731 l 0.675301,-0.876593 -0.642835,-0.83114 H 49.9689 l 0.512969,0.668808 0.512969,-0.668808 h 0.253238 z"
     style="font-family:Montserrat;-inkscape-font-specification:Montserrat;text-align:center;text-anchor:middle"
     id="path98526" /><path
     d="m 52.549973,36.035445 q 0.240251,0 0.43505,0.110386 0.194798,0.107139 0.305184,0.305184 0.110386,0.198045 0.110386,0.451283 0,0.256485 -0.110386,0.45453 -0.110386,0.198045 -0.305184,0.308431 -0.191552,0.107139 -0.43505,0.107139 -0.207785,0 -0.37661,-0.08441 -0.165579,-0.08766 -0.272718,-0.253238 v 0.951266 h -0.230511 v -2.337581 h 0.220771 v 0.33765 q 0.103893,-0.168825 0.272718,-0.259731 0.172072,-0.09091 0.38635,-0.09091 z m -0.01623,1.532414 q 0.178565,0 0.324664,-0.08117 0.146099,-0.08441 0.227265,-0.237004 0.08441,-0.152592 0.08441,-0.347391 0,-0.194798 -0.08441,-0.344144 -0.08117,-0.152592 -0.227265,-0.237004 -0.146099,-0.08441 -0.324664,-0.08441 -0.181812,0 -0.327911,0.08441 -0.142852,0.08441 -0.227265,0.237004 -0.08117,0.149346 -0.08117,0.344144 0,0.194799 0.08117,0.347391 0.08441,0.152592 0.227265,0.237004 0.146099,0.08117 0.327911,0.08117 z"
     style="font-family:Montserrat;-inkscape-font-specification:Montserrat;text-align:center;text-anchor:middle"
     id="path98528" /><path
     d="m 55.358316,36.973724 h -1.428521 q 0.01948,0.266225 0.204538,0.431803 0.185058,0.162332 0.467516,0.162332 0.159085,0 0.292198,-0.05519 0.133112,-0.05844 0.230511,-0.168826 l 0.129866,0.149346 q -0.113633,0.136359 -0.285705,0.207785 -0.168825,0.07143 -0.373363,0.07143 -0.262978,0 -0.467516,-0.110386 -0.201292,-0.113632 -0.314924,-0.311677 -0.113633,-0.198045 -0.113633,-0.448037 0,-0.249991 0.107139,-0.448036 0.110386,-0.198045 0.298691,-0.308431 0.191552,-0.110386 0.428557,-0.110386 0.237004,0 0.425309,0.110386 0.188306,0.110386 0.295445,0.308431 0.107139,0.194798 0.107139,0.448036 z M 54.53367,36.23349 q -0.246745,0 -0.41557,0.159086 -0.165579,0.155838 -0.188305,0.409076 h 1.210996 Q 55.118065,36.548414 54.94924,36.392576 54.783661,36.23349 54.53367,36.23349 Z"
     style="font-family:Montserrat;-inkscape-font-specification:Montserrat;text-align:center;text-anchor:middle"
     id="path98530" /><path
     d="m 56.702419,36.035445 q 0.321417,0 0.509722,0.188305 0.191552,0.185059 0.191552,0.542189 v 0.990226 h -0.230511 v -0.967499 q 0,-0.266225 -0.133113,-0.40583 -0.133112,-0.139606 -0.379857,-0.139606 -0.275964,0 -0.438296,0.165579 -0.159085,0.162332 -0.159085,0.451283 v 0.896073 h -0.230512 v -1.707733 h 0.220772 v 0.314924 q 0.09415,-0.155839 0.259731,-0.240251 0.168825,-0.08766 0.389597,-0.08766 z"
     style="font-family:Montserrat;-inkscape-font-specification:Montserrat;text-align:center;text-anchor:middle"
     id="path98532" /><path
     d="m 58.488063,37.772398 q -0.207785,0 -0.399337,-0.05844 -0.188305,-0.06169 -0.295444,-0.152592 l 0.103893,-0.181812 q 0.107139,0.08441 0.269471,0.139606 0.162332,0.05195 0.33765,0.05195 0.233758,0 0.344144,-0.07143 0.113632,-0.07467 0.113632,-0.207785 0,-0.09415 -0.06169,-0.146099 -0.06169,-0.05519 -0.155838,-0.08117 -0.09415,-0.02922 -0.249992,-0.05519 -0.207785,-0.03896 -0.334404,-0.07792 -0.126619,-0.04221 -0.217524,-0.139606 -0.08766,-0.0974 -0.08766,-0.269471 0,-0.214278 0.178565,-0.350637 0.178566,-0.136359 0.496736,-0.136359 0.165579,0 0.331158,0.04545 0.165578,0.04221 0.272717,0.113633 l -0.100645,0.185058 q -0.211032,-0.146099 -0.50323,-0.146099 -0.220771,0 -0.334404,0.07792 -0.110385,0.07792 -0.110385,0.204538 0,0.0974 0.06169,0.155839 0.06493,0.05844 0.159085,0.08766 0.09415,0.02597 0.259731,0.05519 0.204539,0.03896 0.327911,0.07792 0.123372,0.03896 0.211032,0.133113 0.08766,0.09415 0.08766,0.259731 0,0.224018 -0.188305,0.35713 -0.185059,0.129866 -0.516216,0.129866 z"
     style="font-family:Montserrat;-inkscape-font-specification:Montserrat;text-align:center;text-anchor:middle"
     id="path98534" /><path
     d="m 61.104849,36.973724 h -1.428522 q 0.01948,0.266225 0.204538,0.431803 0.185059,0.162332 0.467517,0.162332 0.159085,0 0.292197,-0.05519 0.133112,-0.05844 0.230512,-0.168826 l 0.129865,0.149346 q -0.113632,0.136359 -0.285704,0.207785 -0.168825,0.07143 -0.373364,0.07143 -0.262978,0 -0.467516,-0.110386 -0.201292,-0.113632 -0.314924,-0.311677 -0.113632,-0.198045 -0.113632,-0.448037 0,-0.249991 0.107139,-0.448036 0.110385,-0.198045 0.298691,-0.308431 0.191551,-0.110386 0.428556,-0.110386 0.237005,0 0.42531,0.110386 0.188305,0.110386 0.295444,0.308431 0.107139,0.194798 0.107139,0.448036 z M 60.280202,36.23349 q -0.246745,0 -0.41557,0.159086 -0.165578,0.155838 -0.188305,0.409076 h 1.210997 q -0.02273,-0.253238 -0.191552,-0.409076 -0.165579,-0.159086 -0.41557,-0.159086 z"
     style="font-family:Montserrat;-inkscape-font-specification:Montserrat;text-align:center;text-anchor:middle"
     id="path98536" /><path
     d="m 62.036632,37.772398 q -0.207785,0 -0.399337,-0.05844 -0.188305,-0.06169 -0.295444,-0.152592 l 0.103892,-0.181812 q 0.107139,0.08441 0.269471,0.139606 0.162332,0.05195 0.337651,0.05195 0.233758,0 0.344144,-0.07143 0.113632,-0.07467 0.113632,-0.207785 0,-0.09415 -0.06169,-0.146099 -0.06169,-0.05519 -0.155839,-0.08117 -0.09415,-0.02922 -0.249991,-0.05519 -0.207785,-0.03896 -0.334404,-0.07792 -0.126619,-0.04221 -0.217525,-0.139606 -0.08766,-0.0974 -0.08766,-0.269471 0,-0.214278 0.178565,-0.350637 0.178565,-0.136359 0.496736,-0.136359 0.165579,0 0.331157,0.04545 0.165579,0.04221 0.272718,0.113633 l -0.100646,0.185058 q -0.211031,-0.146099 -0.503229,-0.146099 -0.220771,0 -0.334404,0.07792 -0.110386,0.07792 -0.110386,0.204538 0,0.0974 0.06169,0.155839 0.06493,0.05844 0.159085,0.08766 0.09415,0.02597 0.259731,0.05519 0.204538,0.03896 0.327911,0.07792 0.123372,0.03896 0.211031,0.133113 0.08766,0.09415 0.08766,0.259731 0,0.224018 -0.188305,0.35713 -0.185059,0.129866 -0.516216,0.129866 z"
     style="font-family:Montserrat;-inkscape-font-specification:Montserrat;text-align:center;text-anchor:middle"
     id="path98538" /><path
     d="m 63.189183,37.772398 q -0.07143,0 -0.123373,-0.05195 -0.0487,-0.05195 -0.0487,-0.126619 0,-0.07467 0.0487,-0.123373 0.05195,-0.05195 0.123373,-0.05195 0.07143,0 0.123372,0.05195 0.05195,0.0487 0.05195,0.123373 0,0.07467 -0.05195,0.126619 -0.05195,0.05195 -0.123372,0.05195 z"
     style="font-family:Montserrat;-inkscape-font-specification:Montserrat;text-align:center;text-anchor:middle"
     id="path98540" /><path
     d="m 25.328595,41.844393 h -1.512934 v -2.272648 h 0.240251 v 2.064863 h 1.272683 z"
     style="font-family:Montserrat;-inkscape-font-specification:Montserrat;text-align:center;text-anchor:middle"
     id="path98542" /><path
     d="m 26.961647,40.136661 h 0.230511 v 1.707732 h -0.220771 v -0.311677 q -0.09091,0.155838 -0.249991,0.243498 -0.159086,0.08441 -0.363624,0.08441 -0.334404,0 -0.529202,-0.185058 -0.191552,-0.188305 -0.191552,-0.548682 v -0.990225 h 0.230511 v 0.967498 q 0,0.269471 0.133112,0.409077 0.133113,0.139605 0.379857,0.139605 0.269471,0 0.42531,-0.162332 0.155839,-0.165578 0.155839,-0.457776 z"
     style="font-family:Montserrat;-inkscape-font-specification:Montserrat;text-align:center;text-anchor:middle"
     id="path98544" /><path
     d="m 28.546002,41.860626 q -0.253238,0 -0.45453,-0.110385 -0.198045,-0.110386 -0.311677,-0.308431 -0.113633,-0.201292 -0.113633,-0.451283 0,-0.249991 0.113633,-0.448037 0.113632,-0.198045 0.311677,-0.30843 0.201292,-0.110386 0.45453,-0.110386 0.220771,0 0.392843,0.08766 0.175319,0.08441 0.275965,0.249992 l -0.172072,0.116879 q -0.08441,-0.126619 -0.214279,-0.188306 -0.129865,-0.06493 -0.282457,-0.06493 -0.185059,0 -0.334404,0.08441 -0.146099,0.08117 -0.230512,0.233758 -0.08117,0.152592 -0.08117,0.347391 0,0.198045 0.08117,0.350637 0.08441,0.149345 0.230512,0.233758 0.149345,0.08117 0.334404,0.08117 0.152592,0 0.282457,-0.06169 0.129866,-0.06169 0.214279,-0.188305 l 0.172072,0.116879 q -0.100646,0.165578 -0.275965,0.253238 -0.175318,0.08441 -0.392843,0.08441 z"
     style="font-family:Montserrat;-inkscape-font-specification:Montserrat;text-align:center;text-anchor:middle"
     id="path98546" /><path
     d="m 31.243955,41.844393 h -0.282458 l -0.688288,-0.857113 -0.402583,0.370117 v 0.486996 h -0.230511 v -2.409007 h 0.230511 v 1.63306 l 1.019445,-0.931785 h 0.285704 l -0.730494,0.698027 z"
     style="font-family:Montserrat;-inkscape-font-specification:Montserrat;text-align:center;text-anchor:middle"
     id="path98548" /><path
     d="m 32.711434,40.136661 h 0.227265 l -0.853867,1.91227 q -0.103892,0.240252 -0.240251,0.340898 -0.136359,0.100645 -0.327911,0.100645 -0.123372,0 -0.230511,-0.03896 -0.107139,-0.03896 -0.185058,-0.116879 l 0.107139,-0.172072 q 0.129865,0.129865 0.311677,0.129865 0.116879,0 0.198045,-0.06493 0.08441,-0.06493 0.155839,-0.220772 l 0.07467,-0.165579 -0.762961,-1.704485 h 0.240252 l 0.642834,1.451248 z"
     style="font-family:Montserrat;-inkscape-font-specification:Montserrat;text-align:center;text-anchor:middle"
     id="path98550" /><path
     d="m 35.321729,40.136661 h 0.227265 l -0.853867,1.91227 q -0.103892,0.240252 -0.240251,0.340898 -0.136359,0.100645 -0.327911,0.100645 -0.123372,0 -0.230511,-0.03896 -0.107139,-0.03896 -0.185059,-0.116879 l 0.107139,-0.172072 q 0.129866,0.129865 0.311678,0.129865 0.116879,0 0.198045,-0.06493 0.08441,-0.06493 0.155839,-0.220772 l 0.07467,-0.165579 -0.76296,-1.704485 h 0.240251 l 0.642835,1.451248 z"
     style="font-family:Montserrat;-inkscape-font-specification:Montserrat;text-align:center;text-anchor:middle"
     id="path98552" /><path
     d="m 36.522981,41.860626 q -0.246745,0 -0.44479,-0.110385 -0.198045,-0.113633 -0.311677,-0.311678 -0.113633,-0.198045 -0.113633,-0.448036 0,-0.249991 0.113633,-0.448037 0.113632,-0.198045 0.311677,-0.30843 0.198045,-0.110386 0.44479,-0.110386 0.246745,0 0.44479,0.110386 0.198045,0.110385 0.30843,0.30843 0.113633,0.198046 0.113633,0.448037 0,0.249991 -0.113633,0.448036 -0.110385,0.198045 -0.30843,0.311678 -0.198045,0.110385 -0.44479,0.110385 z m 0,-0.204538 q 0.181812,0 0.324664,-0.08117 0.146099,-0.08441 0.227265,-0.237005 0.08117,-0.152592 0.08117,-0.34739 0,-0.194799 -0.08117,-0.347391 -0.08117,-0.152592 -0.227265,-0.233758 -0.142852,-0.08441 -0.324664,-0.08441 -0.181812,0 -0.327911,0.08441 -0.142852,0.08117 -0.227264,0.233758 -0.08117,0.152592 -0.08117,0.347391 0,0.194798 0.08117,0.34739 0.08441,0.152592 0.227264,0.237005 0.146099,0.08117 0.327911,0.08117 z"
     style="font-family:Montserrat;-inkscape-font-specification:Montserrat;text-align:center;text-anchor:middle"
     id="path98554" /><path
     d="M 39.168989,40.136661 H 39.3995 v 1.707732 h -0.220771 v -0.311677 q -0.09091,0.155838 -0.249991,0.243498 -0.159086,0.08441 -0.363624,0.08441 -0.334404,0 -0.529202,-0.185058 -0.191552,-0.188305 -0.191552,-0.548682 v -0.990225 h 0.230511 v 0.967498 q 0,0.269471 0.133113,0.409077 0.133112,0.139605 0.379856,0.139605 0.269472,0 0.42531,-0.162332 0.155839,-0.165578 0.155839,-0.457776 z"
     style="font-family:Montserrat;-inkscape-font-specification:Montserrat;text-align:center;text-anchor:middle"
     id="path98556" /><path
     d="m 40.233882,41.162599 h -0.178565 l -0.04545,-1.590854 h 0.272718 z m -0.08766,0.698027 q -0.07143,0 -0.123372,-0.0487 -0.0487,-0.05195 -0.0487,-0.120126 0,-0.07143 0.0487,-0.116879 0.0487,-0.0487 0.123372,-0.0487 0.07143,0 0.120126,0.0487 0.0487,0.04545 0.0487,0.116879 0,0.06818 -0.0487,0.120126 -0.0487,0.0487 -0.120126,0.0487 z"
     style="font-family:Montserrat;-inkscape-font-specification:Montserrat;text-align:center;text-anchor:middle"
     id="path98558" /></g><g
   id="g50"
   transform="matrix(0.5,0,0,0.5,16.766664,-0.057875)"
   style="stroke:none"><path
     d="m 44,38.884 c 0,2.206 1.794,4 4,4 2.206,0 4,-1.794 4,-4 0,-2.206 -1.794,-4 -4,-4 -2.206,0 -4,1.794 -4,4 z m 4,-2 c 1.103,0 2,0.897 2,2 0,1.103 -0.897,2 -2,2 -1.103,0 -2,-0.897 -2,-2 0,-1.103 0.897,-2 2,-2 z"
     id="path44"
     style="stroke:none" /><path
     d="M 42.942,5.884 37.506,0.448 c -0.443,-0.443 -1.166,-0.443 -1.609,0 L 33.851,2.494 31.805,0.448 c -0.443,-0.443 -1.166,-0.443 -1.609,0 L 24.76,5.884 H 8 c -4.411,0 -8,3.589 -8,8 v 38.848 c 0,3.943 3.209,7.152 7.152,7.152 H 60 v -14 -14 -10 -2 -14 z m -6.24,-3.412 3.412,3.412 14,14 H 48.723 L 37.456,8.616 C 37.033,8.205 36.37,8.206 35.937,8.627 L 24.681,19.884 H 19.29 L 35.266,3.909 v 0 z m 9.194,17.412 H 27.509 l 9.193,-9.193 z M 31,2.472 32.437,3.909 16.462,19.884 h -2.874 l 14,-14 z M 8,7.884 h 14.76 c -4.060047,3.936814 -7.944661,7.944661 -12,12 H 8 c -3.309,0 -6,-2.691 -6,-6 0,-3.309 2.691,-6 6,-6 z m 50,36 H 47 c -2.757,0 -5,-2.243 -5,-5 0,-2.757 2.243,-5 5,-5 h 11 z m 0,-12 H 47 c -3.859,0 -7,3.141 -7,7 0,3.859 3.141,7 7,7 h 11 v 12 H 7.152 C 4.312,57.884 2,55.573 2,52.732 2.1933065,41.032465 2.0001641,29.373719 2.198,19.377 c 0.09,0.095 0.181,0.188 0.275,0.278 0.086,0.083 0.175,0.162 0.265,0.241 0.112,0.098 0.226,0.193 0.343,0.285 0.094,0.074 0.19,0.145 0.287,0.215 0.121,0.087 0.246,0.169 0.372,0.249 0.101,0.064 0.202,0.126 0.306,0.186 0.132,0.075 0.267,0.145 0.403,0.213 0.105,0.053 0.21,0.106 0.318,0.154 0.143,0.063 0.289,0.119 0.435,0.174 0.108,0.041 0.215,0.083 0.325,0.119 0.157,0.051 0.317,0.092 0.477,0.134 0.106,0.027 0.21,0.059 0.318,0.082 0.181,0.039 0.365,0.065 0.55,0.091 0.092,0.013 0.182,0.032 0.275,0.042 0.28,0.03 0.564,0.047 0.851,0.047 h 3.816 2.828 2.874 2.828 4.956 22.805 4.953 2.828 H 58 Z m -1.058,-12 -12,-12 H 58 v 12 z"
     id="path46"
     style="stroke:none;stroke-opacity:1"
     sodipodi:nodetypes="csscsscssssccccccccccccccccccccccccccccsccssscssscccsssccsccccccccccccccccsccccccccccccccc" /></g></svg>
