<?xml version="1.0" encoding="UTF-8" standalone="no"?>
<!-- Created with Inkscape (http://www.inkscape.org/) -->

<svg
   width="66.711754mm"
   height="9.8001328mm"
   viewBox="0 0 66.711754 9.8001328"
   version="1.1"
   id="svg5"
   sodipodi:docname="logo.svg"
   xmlns:inkscape="http://www.inkscape.org/namespaces/inkscape"
   xmlns:sodipodi="http://sodipodi.sourceforge.net/DTD/sodipodi-0.dtd"
   xmlns="http://www.w3.org/2000/svg"
   xmlns:svg="http://www.w3.org/2000/svg">
  <sodipodi:namedview
     id="namedview7"
     pagecolor="#ffffff"
     bordercolor="#666666"
     borderopacity="1.0"
     inkscape:pageshadow="2"
     inkscape:pageopacity="0.0"
     inkscape:pagecheckerboard="0"
     inkscape:document-units="mm"
     showgrid="false"
     inkscape:zoom="0.85504809"
     inkscape:cx="292.96598"
     inkscape:cy="-153.20776"
     inkscape:window-width="1920"
     inkscape:window-height="1012"
     inkscape:window-x="0"
     inkscape:window-y="32"
     inkscape:window-maximized="1"
     inkscape:current-layer="layer1" />
  <defs
     id="defs2" />
  <g
     inkscape:label="Warstwa 1"
     inkscape:groupmode="layer"
     id="layer1"
     transform="translate(145.7418,-121.59539)">
    <g
       aria-label="MyExpenses"
       id="text2828"
       style="font-size:10.5833px;line-height:1.25;stroke-width:0.264583">
      <path
         d="m -137.5133,121.72768 0.0106,7.40831 h -1.30174 l -0.0106,-4.91065 -2.43416,4.06398 h -0.61383 l -2.43416,-4.00048 v 4.84715 h -1.31232 v -7.40831 h 1.13241 l 2.94216,4.91065 2.88924,-4.91065 z"
         style="font-weight:600;font-family:Montserrat;-inkscape-font-specification:'Montserrat Semi-Bold';fill:none;fill-opacity:1;stroke:#0041cc;stroke-opacity:1"
         id="path14370" />
      <path
         d="m -131.60782,123.4845 h 1.27 l -2.64583,6.10657 q -0.37041,0.92075 -0.89958,1.29116 -0.52916,0.381 -1.28058,0.381 -0.42333,0 -0.83608,-0.13758 -0.41275,-0.13759 -0.67733,-0.381 l 0.52916,-0.97367 q 0.1905,0.17992 0.4445,0.28575 0.26459,0.10584 0.52917,0.10584 0.34925,0 0.5715,-0.17992 0.23283,-0.17992 0.42333,-0.60325 l 0.0953,-0.22225 -2.46591,-5.67265 h 1.37583 l 1.77799,4.18041 z"
         style="font-weight:600;font-family:Montserrat;-inkscape-font-specification:'Montserrat Semi-Bold';fill:none;fill-opacity:1;stroke:#0041cc;stroke-opacity:1"
         id="path14372" />
      <path
         d="m -128.00951,125.93983 v 2.04258 h 4.18041 v 1.15358 h -5.55624 v -7.40831 h 5.40807 v 1.15358 h -4.03224 v 1.92616 h 3.57716 v 1.13241 z"
         style="font-weight:600;font-family:Montserrat;-inkscape-font-specification:'Montserrat Semi-Bold';fill:#3374ff;fill-opacity:1"
         id="path14374" />
      <path
         d="m -119.64872,126.24675 2.21191,2.88924 h -1.49225 l -1.44991,-1.95791 -1.4605,1.95791 h -1.46049 l 2.20133,-2.86808 -2.10608,-2.78341 h 1.47108 l 1.38641,1.85208 1.38641,-1.85208 h 1.42875 z"
         style="font-weight:600;font-family:Montserrat;-inkscape-font-specification:'Montserrat Semi-Bold';fill:#3374ff;fill-opacity:1"
         id="path14376" />
      <path
         d="m -113.33049,123.421 q 0.82549,0 1.47108,0.35984 0.65616,0.35983 1.02658,1.01599 0.37041,0.65617 0.37041,1.51342 0,0.85724 -0.37041,1.52399 -0.37042,0.65617 -1.02658,1.016 -0.64559,0.35983 -1.47108,0.35983 -1.143,0 -1.80975,-0.762 v 2.74108 h -1.32291 v -7.70465 h 1.25941 v 0.74084 q 0.32809,-0.40217 0.80433,-0.60325 0.48684,-0.20109 1.06892,-0.20109 z m -0.14817,4.65666 q 0.73025,0 1.19591,-0.48684 0.47625,-0.48683 0.47625,-1.28057 0,-0.79375 -0.47625,-1.28058 -0.46566,-0.48684 -1.19591,-0.48684 -0.47625,0 -0.85725,0.22225 -0.381,0.21167 -0.60324,0.61383 -0.22225,0.40217 -0.22225,0.93134 0,0.52916 0.22225,0.93133 0.22224,0.40216 0.60324,0.62441 0.381,0.21167 0.85725,0.21167 z"
         style="font-weight:600;font-family:Montserrat;-inkscape-font-specification:'Montserrat Semi-Bold';fill:#3374ff;fill-opacity:1"
         id="path14378" />
      <path
         d="m -103.8902,126.342 q 0,0.13758 -0.0212,0.39158 h -4.4344 q 0.11642,0.62441 0.60325,0.99483 0.49741,0.35983 1.22766,0.35983 0.93133,0 1.53458,-0.61383 l 0.70908,0.81491 q -0.381,0.45508 -0.96308,0.68792 -0.58208,0.23283 -1.31233,0.23283 -0.93133,0 -1.64041,-0.37042 -0.70908,-0.37041 -1.10066,-1.02658 -0.381,-0.66674 -0.381,-1.50282 0,-0.8255 0.37041,-1.48167 0.381,-0.66674 1.04775,-1.03716 0.66675,-0.37042 1.50283,-0.37042 0.8255,0 1.47108,0.37042 0.65616,0.35983 1.01599,1.02658 0.37042,0.65616 0.37042,1.524 z m -2.85749,-1.86267 q -0.635,0 -1.0795,0.381 -0.43391,0.37042 -0.52916,0.99483 h 3.20674 q -0.0847,-0.61383 -0.51858,-0.99483 -0.43392,-0.381 -1.0795,-0.381 z"
         style="font-weight:600;font-family:Montserrat;-inkscape-font-specification:'Montserrat Semi-Bold';fill:#3374ff;fill-opacity:1"
         id="path14380" />
      <path
         d="m -99.413467,123.421 q 1.068914,0 1.714495,0.62442 0.645581,0.62441 0.645581,1.85208 v 3.23849 h -1.322912 v -3.06916 q 0,-0.74083 -0.349249,-1.11125 -0.349249,-0.381 -0.99483,-0.381 -0.730248,0 -1.153578,0.4445 -0.42333,0.43392 -0.42333,1.25942 v 2.85749 h -1.32292 v -5.65149 h 1.25942 v 0.73025 q 0.32808,-0.39158 0.82549,-0.59266 0.49742,-0.20109 1.121833,-0.20109 z"
         style="font-weight:600;font-family:Montserrat;-inkscape-font-specification:'Montserrat Semi-Bold';fill:#3374ff;fill-opacity:1"
         id="path14382" />
      <path
         d="m -93.624408,129.21007 q -0.687915,0 -1.344079,-0.17992 -0.656165,-0.17991 -1.047747,-0.45508 l 0.507998,-1.00541 q 0.380999,0.254 0.910164,0.41275 0.539748,0.14816 1.05833,0.14816 1.18533,0 1.18533,-0.62441 0,-0.29633 -0.306916,-0.41275 -0.296333,-0.11642 -0.96308,-0.22225 -0.698498,-0.10583 -1.142997,-0.24342 -0.433915,-0.13758 -0.761997,-0.47624 -0.317499,-0.34925 -0.317499,-0.96308 0,-0.80434 0.666748,-1.28058 0.677331,-0.48684 1.820327,-0.48684 0.582082,0 1.164163,0.13759 0.582082,0.127 0.952497,0.34925 l -0.507998,1.00541 q -0.719665,-0.42333 -1.619245,-0.42333 -0.582082,0 -0.888997,0.17991 -0.296333,0.16934 -0.296333,0.45509 0,0.31749 0.317499,0.45508 0.328082,0.127 1.005414,0.24341 0.677331,0.10584 1.111246,0.24342 0.433915,0.13758 0.740831,0.46566 0.317499,0.32809 0.317499,0.93133 0,0.79375 -0.687914,1.27 -0.687915,0.47625 -1.873244,0.47625 z"
         style="font-weight:600;font-family:Montserrat;-inkscape-font-specification:'Montserrat Semi-Bold';fill:#3374ff;fill-opacity:1"
         id="path14384" />
      <path
         d="m -84.607447,126.342 q 0,0.13758 -0.02117,0.39158 h -4.434403 q 0.116417,0.62441 0.603248,0.99483 0.497415,0.35983 1.227663,0.35983 0.93133,0 1.534579,-0.61383 l 0.709081,0.81491 q -0.380999,0.45508 -0.963081,0.68792 -0.582081,0.23283 -1.312329,0.23283 -0.93133,0 -1.640411,-0.37042 -0.709081,-0.37041 -1.100663,-1.02658 -0.380999,-0.66674 -0.380999,-1.50282 0,-0.8255 0.370415,-1.48167 0.380999,-0.66674 1.047747,-1.03716 0.666748,-0.37042 1.502829,-0.37042 0.825497,0 1.471078,0.37042 0.656165,0.35983 1.015997,1.02658 0.370415,0.65616 0.370415,1.524 z m -2.85749,-1.86267 q -0.634998,0 -1.079497,0.381 -0.433915,0.37042 -0.529165,0.99483 h 3.20674 q -0.08467,-0.61383 -0.518582,-0.99483 -0.433915,-0.381 -1.079496,-0.381 z"
         style="font-weight:600;font-family:Montserrat;-inkscape-font-specification:'Montserrat Semi-Bold';fill:#3374ff;fill-opacity:1"
         id="path14386" />
      <path
         d="m -81.591209,129.21007 q -0.687915,0 -1.344079,-0.17992 -0.656165,-0.17991 -1.047747,-0.45508 l 0.507999,-1.00541 q 0.380998,0.254 0.910163,0.41275 0.539749,0.14816 1.05833,0.14816 1.18533,0 1.18533,-0.62441 0,-0.29633 -0.306916,-0.41275 -0.296332,-0.11642 -0.96308,-0.22225 -0.698498,-0.10583 -1.142996,-0.24342 -0.433916,-0.13758 -0.761998,-0.47624 -0.317499,-0.34925 -0.317499,-0.96308 0,-0.80434 0.666748,-1.28058 0.677331,-0.48684 1.820327,-0.48684 0.582082,0 1.164163,0.13759 0.582082,0.127 0.952497,0.34925 l -0.507998,1.00541 q -0.719664,-0.42333 -1.619245,-0.42333 -0.582081,0 -0.888997,0.17991 -0.296332,0.16934 -0.296332,0.45509 0,0.31749 0.317499,0.45508 0.328082,0.127 1.005413,0.24341 0.677331,0.10584 1.111246,0.24342 0.433916,0.13758 0.740831,0.46566 0.317499,0.32809 0.317499,0.93133 0,0.79375 -0.687914,1.27 -0.687915,0.47625 -1.873244,0.47625 z"
         style="font-weight:600;font-family:Montserrat;-inkscape-font-specification:'Montserrat Semi-Bold';fill:#3374ff;fill-opacity:1"
         id="path14388" />
    </g>
  </g>
</svg>
