<svg width="512" height="512" xmlns="http://www.w3.org/2000/svg">

 <g>
  <title>background</title>
  <rect fill="none" id="canvas_background" height="402" width="582" y="-1" x="-1"/>
 </g>
 <g>
  <title>Layer 1</title>
  <path id="svg_3" fill="#000000" d="m137.800003,511.899994l-68.300003,0c-10,0 -18.099998,-8.200012 -18.099998,-18.100006l0,-139.799988c0,-10 8.199997,-18.100006 18.099998,-18.100006l68.300003,0c10,0 18.099991,8.200012 18.099991,18.100006l0,139.799988c0.100006,10 -8.099991,18.100006 -18.099991,18.100006z"/>
  <path id="svg_4" fill="#000000" d="m286.899994,511.899994l-61.800003,0c-11.699997,0 -21.399994,-9.600006 -21.399994,-21.399994l0,-201.700012c0,-11.700012 9.600006,-21.399994 21.399994,-21.399994l61.800003,0c11.699982,0 21.399994,9.600006 21.399994,21.399994l0,201.699982c0,11.800018 -9.599976,21.400024 -21.399994,21.400024z"/>
  <path id="svg_5" fill="#000000" d="m436.5,511.899994l-56.299988,0c-13.300018,0 -24.100006,-10.899994 -24.100006,-24.100006l0,-263.499985c0,-13.300003 10.899994,-24.100006 24.100006,-24.100006l56.299988,0c13.299988,0 24.100006,10.900009 24.100006,24.100006l0,263.499985c0,13.300018 -10.800018,24.100006 -24.100006,24.100006z"/>
  <path id="svg_6" fill="#000000" d="m445.100006,0c-22,0.9 -39.100006,19.5 -38.199982,41.599998l-101.600006,99.900002l-86.600006,-75.800003l-158.500011,159c-20.400002,2.600006 -35.700001,20.199997 -34.900002,41.099991c0.900002,22 19.600002,39.100006 41.600002,38.200012s39.099998,-19.600006 38.199997,-41.600006c-0.099998,-1.799988 -0.5,-3.5 -0.799995,-5.299988l119.300003,-114.5l83.699982,73.299988l138.700012,-136.199997c0.799988,0 1.600006,0.200005 2.399994,0.100006c22,-0.900002 39.100006,-19.600002 38.200012,-41.600002c-0.899994,-22 -19.5,-39.100001 -41.5,-38.200001z"/>
 </g>
</svg>